<svg xmlns="http://www.w3.org/2000/svg" viewBox="0 0 30 30">
  <title>cargobr-icon</title>
  <g id="Layer_2" data-name="Layer 2">
    <path class="cls-1" d="M8.19,22a2.37,2.37,0,0,1-1.48-.51,2.4,2.4,0,0,1-.88-1.4H4.23V8H18.65V9.91h3.27L22,10l3.77,5v5.09H23.53A2.46,2.46,0,0,1,21.46,22a2.44,2.44,0,0,1-2.69-1.89H10.58A2.45,2.45,0,0,1,8.51,22Zm13-4,0,.15a1.33,1.33,0,0,0-.92.41,1.27,1.27,0,0,0-.35.93,1.3,1.3,0,1,0,2.6,0v-.07a1.3,1.3,0,0,0-1.3-1.28Zm0-.2v.05h0ZM8.2,18.16v.15a1.33,1.33,0,0,0-.9.36,1.32,1.32,0,0,0-.4.91,1.31,1.31,0,0,0,2.61,0,1.31,1.31,0,0,0-1.27-1.27ZM23.48,19h1.14v-.22a1.55,1.55,0,0,1,0-2.88v-.48l-.59-.8H19.44V11.2h2l-.11-.14H18.64V19h.17a2.41,2.41,0,0,1,4.67,0ZM10.54,19h7V9.11H5.38V19h.49a2.4,2.4,0,0,1,1.94-1.78,2.35,2.35,0,0,1,1.8.42A2.4,2.4,0,0,1,10.54,19Zm14.58-.68-.37-.21a.86.86,0,0,1-.42-.53.88.88,0,0,1,.42-1l.37-.2Zm-4.53-4.82h2.58l-.85-1.12H20.59Z"/>
  </g>
</svg>
